<svg xmlns="http://www.w3.org/2000/svg" viewBox="0 0 160 160">
  <defs>
    <clipPath id="g">
      <path clip-rule="evenodd" d="M67.4 29.5L70.3 10.7L89.7 10.7L92.6 29.5A52 52 0 0 1 106.8 35.4L122.1 24.1L135.9 37.9L124.6 53.2A52 52 0 0 1 130.5 67.4L149.3 70.3L149.3 89.7L130.5 92.6A52 52 0 0 1 124.6 106.8L135.9 122.1L122.1 135.9L106.8 124.6A52 52 0 0 1 92.6 130.5L89.7 149.3L70.3 149.3L67.4 130.5A52 52 0 0 1 53.2 124.6L37.9 135.9L24.1 122.1L35.4 106.8A52 52 0 0 1 29.5 92.6L10.7 89.7L10.7 70.3L29.5 67.4A52 52 0 0 1 35.4 53.2L24.1 37.9L37.9 24.1L53.2 35.4A52 52 0 0 1 67.4 29.5ZM80 58A22 22 0 0 0 80 102A22 22 0 0 0 80 58Z"/>
    </clipPath>
  </defs>

  <rect x="0" y="0" width="80" height="80" fill="#333333" clip-path="url(#g)"/>
  <rect x="80" y="0" width="80" height="80" fill="#666666" clip-path="url(#g)"/>
  <rect x="0" y="80" width="80" height="80" fill="#CCCCCC" clip-path="url(#g)"/>
  <rect x="80" y="80" width="80" height="80" fill="#999999" clip-path="url(#g)"/>
</svg>
